<svg width="424.09560546874997px" height="198.79999999999998px" xmlns="http://www.w3.org/2000/svg" viewBox="37.95219726562502 -24.39999999999999 424.09560546874997 198.79999999999998" style="background: rgba(0, 0, 0, 0);" preserveAspectRatio="xMidYMid"><defs><linearGradient id="editing-gradient-gradient" x1="0" x2="1" y1="0.5" y2="0.5" gradientUnits="objectBoundingBox"><stop offset="0" stop-color="#f0f"></stop><stop offset="1" stop-color="#0ff"></stop></linearGradient></defs><g><g transform="translate(97.48422908782959, 115.47000503540039)"><path d="M8.89 0L8.89-79.80L19.15-79.80L19.15-48.45L19.15-48.45Q20.75-56.32 37.28-56.32L37.28-56.32L37.28-56.32Q47.88-56.32 52.16-52.50L52.16-52.50L52.16-52.50Q56.43-48.68 56.43-40.47L56.43-40.47L56.43 0L46.17 0L46.17-39.79L46.17-39.79Q46.17-41.95 45.83-43.32L45.83-43.32L45.83-43.32Q45.49-44.69 44.46-46.06L44.46-46.06L44.46-46.06Q42.18-48.91 34.31-48.91L34.31-48.91L34.31-48.91Q28.04-48.91 24.80-48.05L24.80-48.05L24.80-48.05Q21.55-47.20 20.35-45.26L20.35-45.26L20.35-45.26Q19.15-43.32 19.15-39.79L19.15-39.79L19.15 0L8.89 0ZM85.84 0L66.01-55.18L76.84-55.18L92.11-8.89L92.68-8.89L107.50-55.18L117.42-55.18L98.15 0L85.84 0ZM146.72 1.14L146.72 1.14Q138.51 1.14 133.84-0.51L133.84-0.51L133.84-0.51Q129.16-2.17 127.05-5.93L127.05-5.93L127.05-5.93Q124.94-9.69 124.94-16.42L124.94-16.42L124.94-40.70L124.94-40.70Q124.94-49.02 130.13-52.67L130.13-52.67L130.13-52.67Q135.32-56.32 147.29-56.32L147.29-56.32L147.29-56.32Q154.47-56.32 159.66-54.49L159.66-54.49L159.66-54.49Q164.84-52.67 164.96-49.25L164.96-49.25L165.19-49.25L164.96-63.27L164.96-79.80L175.22-79.80L175.22 0L165.19 0L165.19-6.50L165.19-6.50Q165.19-3.42 160.28-1.25L160.28-1.25L160.28-1.25Q155.38 1.14 146.72 1.14L146.72 1.14ZM148.88-5.93L148.88-5.93Q157.43-5.93 161.20-7.87L161.20-7.87L161.20-7.87Q164.96-9.80 164.96-14.48L164.96-14.48L164.96-41.72L164.96-41.72Q164.96-49.13 149.80-49.13L149.80-49.13L149.80-49.13Q140.68-49.13 137.94-47.77L137.94-47.77L137.94-47.77Q135.09-46.40 135.09-41.72L135.09-41.72L135.09-14.48L135.09-14.48Q135.09-9.80 138.23-7.87L138.23-7.87L138.23-7.87Q141.36-5.93 148.88-5.93L148.88-5.93ZM215.35 1.14L215.35 1.14Q190.04 1.14 190.04-15.73L190.04-15.73L190.04-37.51L190.04-37.51Q190.04-47.54 195.80-51.93L195.80-51.93L195.80-51.93Q201.55-56.32 214.43-56.32L214.43-56.32L214.43-56.32Q226.63-56.32 232.05-52.10L232.05-52.10L232.05-52.10Q237.46-47.88 237.46-37.51L237.46-37.51L237.46-25.31L200.41-25.31L200.41-16.99L200.41-16.99Q200.41-11.29 204.40-8.78L204.40-8.78L204.40-8.78Q208.39-6.27 216.71-6.27L216.71-6.27L216.71-6.27Q224.58-6.27 235.30-9.01L235.30-9.01L235.30-1.14L235.30-1.14Q224.81 1.14 215.35 1.14L215.35 1.14ZM200.41-32.03L227.20-32.03L227.20-40.70L227.20-40.70Q227.20-45.71 224.18-47.59L224.18-47.59L224.18-47.59Q221.16-49.48 213.86-49.48L213.86-49.48L213.86-49.48Q206.80-49.48 203.60-47.59L203.60-47.59L203.60-47.59Q200.41-45.71 200.41-40.70L200.41-40.70L200.41-32.03ZM264.71 0L244.87-55.18L255.70-55.18L270.98-8.89L271.55-8.89L286.37-55.18L296.29-55.18L277.02 0L264.71 0Z" fill="url(#editing-gradient-gradient)"></path></g></g><style>text {
  font-size: 128px;
  font-family: Arial Black;
  dominant-baseline: central;
  text-anchor: middle;
}</style></svg>